HIERARCHY
ROOT Hips
{
 OFFSET 0.000000 0.000000 0.000000
 CHANNELS 6 Xposition Yposition Zposition Yrotation Xrotation Zrotation
 JOINT Chest
 {
  OFFSET 0.000000 10.383400 0.001500
  CHANNELS 3 Yrotation Xrotation Zrotation
  JOINT Chest2
  {
   OFFSET 0.000000 10.418200 -0.003100
   CHANNELS 3 Yrotation Xrotation Zrotation
   JOINT Chest3
   {
    OFFSET 0.000000 10.375100 0.000000
    CHANNELS 3 Yrotation Xrotation Zrotation
    JOINT Chest4
    {
     OFFSET 0.000000 10.364600 0.000000
     CHANNELS 3 Yrotation Xrotation Zrotation
     JOINT Neck
     {
      OFFSET 0.000000 15.642200 0.000000
      CHANNELS 3 Yrotation Xrotation Zrotation
      JOINT Head
      {
       OFFSET 0.000000 9.697300 -0.006500
       CHANNELS 3 Yrotation Xrotation Zrotation
       End Site
       {
        OFFSET 0.000000 18.492200 -0.003400
       }
      }
     }
     JOINT RightCollar
     {
      OFFSET -3.166800 10.349300 0.000000
      CHANNELS 3 Yrotation Xrotation Zrotation
      JOINT RightShoulder
      {
       OFFSET -14.729700 0.000000 0.000000
       CHANNELS 3 Yrotation Xrotation Zrotation
       JOINT RightElbow
       {
        OFFSET 0.000000 -32.224300 0.000000
        CHANNELS 3 Yrotation Xrotation Zrotation
        JOINT RightWrist
        {
         OFFSET 0.000000 -26.084100 0.000000
         CHANNELS 3 Yrotation Xrotation Zrotation
         End Site
         {
          OFFSET 0.000000 -19.319400 0.000000
         }
        }
       }
      }
     }
     JOINT LeftCollar
     {
      OFFSET 3.166800 10.349300 0.000000
      CHANNELS 3 Yrotation Xrotation Zrotation
      JOINT LeftShoulder
      {
       OFFSET 14.729700 0.000000 0.000000
       CHANNELS 3 Yrotation Xrotation Zrotation
       JOINT LeftElbow
       {
        OFFSET 0.000000 -32.224300 0.000000
        CHANNELS 3 Yrotation Xrotation Zrotation
        JOINT LeftWrist
        {
         OFFSET 0.000000 -26.084100 0.000000
         CHANNELS 3 Yrotation Xrotation Zrotation
         End Site
         {
          OFFSET 0.000000 -19.319400 0.000000
         }
        }
       }
      }
     }
    }
   }
  }
 }
 JOINT RightHip
 {
  OFFSET -8.428900 -0.007500 -0.000800
  CHANNELS 3 Yrotation Xrotation Zrotation
  JOINT RightKnee
  {
   OFFSET 0.000000 -43.834600 0.000700
   CHANNELS 3 Yrotation Xrotation Zrotation
   JOINT RightAnkle
   {
    OFFSET 0.000000 -42.757000 0.001200
    CHANNELS 3 Yrotation Xrotation Zrotation
    JOINT RightToe
    {
     OFFSET 0.000000 -6.946900 15.649300
     CHANNELS 3 Yrotation Xrotation Zrotation
     End Site
     {
      OFFSET 0.000000 -1.580800 6.825800
     }
    }
   }
  }
 }
 JOINT LeftHip
 {
  OFFSET 8.428900 -0.007500 -0.000800
  CHANNELS 3 Yrotation Xrotation Zrotation
  JOINT LeftKnee
  {
   OFFSET 0.000000 -43.834600 0.000700
   CHANNELS 3 Yrotation Xrotation Zrotation
   JOINT LeftAnkle
   {
    OFFSET 0.000000 -42.757000 0.001200
    CHANNELS 3 Yrotation Xrotation Zrotation
    JOINT LeftToe
    {
     OFFSET 0.000000 -6.946900 15.649300
     CHANNELS 3 Yrotation Xrotation Zrotation
     End Site
     {
      OFFSET 0.000000 -1.580800 6.825800
     }
    }
   }
  }
 }
}
MOTION
Frames: 15
Frame Time: 0.008333
0.000000 93.354300 0.000000 0.000000 -5.767883 0.000000 0.000000 11.653835 0.000000 0.000000 -5.885947 0.000000 0.000000 -0.000000 0.000000 0.000000 -0.000000 0.000000 0.000000 12.528835 0.000000 0.000000 0.711642 0.000000 0.000000 -0.000000 0.000000 0.000000 0.000000 -90.000000 0.000000 -2.309062 0.000000 0.000000 2.309062 0.000000 0.000000 -0.000000 0.000000 0.000000 -0.000000 90.000000 0.000000 -2.309062 0.000000 0.000000 2.309062 0.000000 0.000000 8.520418 0.000000 0.000000 1.905762 0.000000 -0.000000 -4.658285 0.000000 0.000000 -0.000000 0.000000 0.000000 8.520418 0.000000 0.000000 1.905762 0.000000 -0.000000 -4.658285 0.000000 0.000000 -0.000000 0.000000
128.154140 154.188242 14.847326 -11.242543 -34.289850 -4.014146 -5.803326 18.883075 2.457049 -0.700168 2.369431 0.497185 -1.249042 3.792492 0.777555 -4.858556 16.232635 2.807008 4.381553 13.514287 -6.591564 10.848325 -9.816527 -14.149015 7.857944 -4.238928 -6.935955 14.103459 -32.390935 0.894722 19.295122 -8.239116 -16.802157 4.477166 -0.371876 -8.214732 -10.837449 -4.579589 -3.194604 -11.374254 -13.635687 1.341397 -8.356464 -35.758296 17.990142 -22.481883 -0.410946 10.578482 -0.741244 -33.034707 -3.409171 -21.840828 70.265504 -18.370042 3.570766 0.285628 6.238713 0.053901 -0.596125 0.051361 -6.371582 -28.120193 -9.120669 4.217123 69.134257 5.379810 -13.167856 -3.795085 -3.031324 0.043009 0.139675 0.079424
128.005320 145.636970 14.834876 -11.263441 -34.328691 -4.279566 -5.731381 18.910732 2.719079 -0.710517 2.366412 0.497610 -1.214171 3.828030 0.784546 -4.917119 16.245910 2.807801 4.125757 13.466787 -6.597723 10.350806 -9.953007 -14.055676 7.905546 -4.224343 -6.978940 14.452470 -32.366793 0.655825 19.052223 -8.705907 -16.907001 4.346192 -0.674222 -8.462890 -10.856912 -4.430701 -3.155005 -11.263580 -13.721076 1.238780 -8.418962 -36.025242 18.288184 -22.684218 -0.308567 10.277346 -0.794053 -33.023878 -3.139489 -21.949971 70.292873 -18.438062 3.561061 0.077535 6.280880 0.033751 -0.366191 0.015111 -6.504016 -27.949296 -8.728869 4.024325 69.012180 5.238500 -13.219650 -3.708387 -3.112841 0.046306 0.105795 0.020583
127.887954 138.590701 14.816992 -11.287641 -34.326763 -4.483544 -5.672995 18.898152 2.920801 -0.715566 2.370223 0.507067 -1.220031 3.842343 0.786527 -4.911394 16.271962 2.801396 3.843360 13.406687 -6.608998 9.853231 -10.108858 -13.976923 7.820647 -4.165413 -7.068147 14.799132 -32.377018 0.512508 18.922358 -9.289016 -17.069432 4.150756 -0.956806 -8.792827 -10.919438 -4.287755 -3.113457 -11.216937 -13.768643 1.114827 -8.407494 -36.371987 18.650098 -22.914958 -0.207732 9.974547 -0.780281 -33.051685 -2.942350 -22.002272 70.292426 -18.490906 3.574825 -0.088273 6.393940 -0.056263 -0.179835 -0.024885 -6.620666 -27.848031 -8.414831 3.895665 68.900796 5.130922 -13.212905 -3.621038 -3.185226 0.025656 0.066058 0.011400
127.810841 133.505055 14.807997 -11.272887 -34.365968 -4.615002 -5.669662 18.920498 3.015778 -0.729251 2.379512 0.510879 -1.243762 3.844927 0.772116 -4.882460 16.301426 2.801419 3.570801 13.337068 -6.622099 9.357317 -10.277440 -13.907294 7.730133 -4.123671 -7.125489 15.036924 -32.328970 0.422473 19.001994 -9.982831 -17.277224 3.944212 -1.226845 -9.233338 -10.997175 -4.148753 -3.063722 -11.214405 -13.764751 0.958401 -8.397275 -36.807810 19.111824 -23.183758 -0.109167 9.767694 -0.718370 -33.031424 -2.881497 -22.068033 70.306496 -18.489423 3.514707 -0.171699 6.422692 -0.035357 -0.076166 -0.015674 -6.725971 -27.735611 -8.225839 3.811125 68.800429 5.045737 -13.216270 -3.529192 -3.248060 0.011133 0.033805 0.004944
127.765963 130.296142 14.803776 -11.259503 -34.429381 -4.692157 -5.672539 18.968244 3.057110 -0.757694 2.350351 0.481472 -1.229307 3.875554 0.785583 -4.894290 16.323437 2.785887 3.309840 13.262731 -6.633589 8.864133 -10.450296 -13.840311 7.634064 -4.084922 -7.157813 15.152601 -32.232048 0.393204 19.304685 -10.782961 -17.518280 3.783571 -1.514299 -9.813902 -11.104074 -4.017917 -2.992702 -11.186035 -13.700423 0.758716 -8.495781 -37.340931 19.695847 -23.481665 -0.051172 9.805281 -0.615380 -32.980182 -2.885279 -22.146929 70.313262 -18.483752 3.463367 -0.190649 6.435523 -0.006066 -0.036058 -0.002691 -6.800550 -27.644911 -8.122010 3.788504 68.751188 5.000881 -13.173087 -3.431360 -3.311133 0.005411 0.017018 0.002403
127.739510 128.535111 14.801405 -11.251423 -34.508582 -4.761031 -5.659739 19.045911 3.107151 -0.769529 2.321976 0.456905 -1.234531 3.882510 0.782664 -4.912862 16.335576 2.767640 3.041450 13.191056 -6.645487 8.374714 -10.620775 -13.768680 7.497727 -4.031525 -7.188503 15.174631 -32.102630 0.426487 19.787907 -11.692506 -17.791035 3.704668 -1.835085 -10.524085 -11.256102 -3.889539 -2.904449 -11.065656 -13.576184 0.526659 -8.803035 -37.985908 20.405203 -23.767573 -0.106080 10.206978 -0.505054 -32.906813 -2.874959 -22.102206 70.298425 -18.421876 3.406128 -0.166820 6.528910 -0.017294 -0.021965 -0.007674 -6.864768 -27.544075 -8.030341 3.771538 68.717644 4.960342 -13.157277 -3.389051 -3.331924 0.002114 0.003065 0.000939
127.731666 127.698124 14.798481 -11.212078 -34.572134 -4.808300 -5.691082 19.073683 3.093977 -0.776456 2.319576 0.449461 -1.236104 3.899494 0.789866 -4.915210 16.351633 2.766027 2.742705 13.103027 -6.673340 7.890198 -10.785758 -13.683795 7.303647 -3.986436 -7.239462 15.124763 -31.940965 0.512826 20.389410 -12.714428 -18.101129 3.711808 -2.193133 -11.318894 -11.434746 -3.764251 -2.826075 -10.850727 -13.403965 0.292397 -9.343460 -38.767146 21.220638 -23.983005 -0.320120 10.990954 -0.399681 -32.841840 -2.912731 -22.105843 70.283785 -18.383999 3.361005 -0.135077 6.595512 -0.018332 -0.023616 -0.008135 -6.924504 -27.478067 -8.000454 3.767330 68.695847 4.943186 -13.134227 -3.351501 -3.354428 0.003502 -0.001662 0.001555
127.731209 127.357492 14.794636 -11.172780 -34.627611 -4.848456 -5.742751 19.035774 3.022338 -0.762398 2.383933 0.493835 -1.231238 3.925541 0.808547 -4.987609 16.315003 2.693646 2.502782 13.046876 -6.658207 7.413983 -10.942491 -13.582983 7.123779 -3.917695 -7.247577 15.008951 -31.748993 0.651323 21.066191 -13.834510 -18.449788 3.773999 -2.593376 -12.138893 -11.546951 -3.579100 -2.717222 -10.557635 -13.181518 0.068044 -10.043311 -39.698299 22.084135 -24.086412 -0.688054 12.074838 -0.295872 -32.782073 -2.957604 -22.133731 70.270807 -18.354449 3.316266 -0.106989 6.637718 -0.014499 -0.023872 -0.006434 -6.964972 -27.428784 -7.986148 3.692578 68.683603 4.882512 -13.129854 -3.301164 -3.400177 0.003133 -0.000866 0.001391
127.732630 127.241402 14.790971 -11.136008 -34.684567 -4.890381 -5.777868 19.048394 2.990160 -0.751722 2.421643 0.526168 -1.271787 3.861811 0.735589 -5.010720 16.347823 2.677467 2.273308 12.999525 -6.634571 6.951791 -11.085222 -13.472880 6.924397 -3.852151 -7.246807 14.818498 -31.539960 0.845816 21.794508 -15.029183 -18.828294 3.858212 -3.030341 -12.923092 -11.634708 -3.385327 -2.596356 -10.201054 -12.901293 -0.154587 -10.802592 -40.759988 22.924331 -24.069731 -1.183319 13.333986 -0.201592 -32.718505 -2.993305 -22.161720 70.257076 -18.325626 3.287101 -0.077845 6.668626 -0.008059 -0.023264 -0.003576 -6.988245 -27.374334 -7.976921 3.673427 68.680176 4.880647 -13.142494 -3.279437 -3.425321 0.000178 0.000231 0.000079
127.735241 127.209431 14.787013 -11.104969 -34.737373 -4.927134 -5.813886 19.057755 2.953092 -0.753772 2.423767 0.522455 -1.288453 3.855990 0.716522 -5.029278 16.365850 2.657734 2.036798 12.952590 -6.621746 6.507371 -11.205580 -13.361101 6.698147 -3.797447 -7.257193 14.551937 -31.331254 1.095817 22.544817 -16.276601 -19.222779 3.951591 -3.489063 -13.626981 -11.713977 -3.211820 -2.479867 -9.808746 -12.569895 -0.380600 -11.560448 -41.915078 23.705677 -23.963017 -1.761596 14.642798 -0.171326 -32.660265 -3.000213 -22.148927 70.245406 -18.297452 3.259971 -0.059892 6.697724 -0.001755 -0.023578 -0.000779 -6.994074 -27.319606 -7.981383 3.617303 68.676073 4.856758 -13.123677 -3.268939 -3.443261 -0.000025 0.000587 -0.000011
127.738178 127.202542 14.781643 -11.082527 -34.778227 -4.959133 -5.846849 19.054111 2.914985 -0.753127 2.427774 0.521310 -1.299262 3.854958 0.706964 -5.057484 16.367808 2.624779 1.811651 12.922219 -6.608009 6.081426 -11.293312 -13.249705 6.465687 -3.742809 -7.265287 14.214435 -31.125733 1.394085 23.294012 -17.556486 -19.616693 4.043052 -3.949094 -14.237113 -11.773742 -3.052185 -2.361481 -9.406068 -12.198083 -0.610044 -12.305023 -43.126349 24.436136 -23.811587 -2.364889 15.888895 -0.139005 -32.615545 -3.008383 -22.174479 70.237776 -18.290286 3.246690 -0.042436 6.702044 0.011205 -0.018506 0.004973 -7.002836 -27.277450 -7.976093 3.600081 68.673756 4.853615 -13.114951 -3.263607 -3.448169 0.000282 0.001426 0.000125
127.742643 127.199917 14.773736 -11.072693 -34.797144 -4.977499 -5.875576 19.021735 2.870674 -0.776880 2.391507 0.478840 -1.281703 3.888264 0.735372 -5.084871 16.361788 2.590113 1.596481 12.914826 -6.592138 5.670179 -11.336783 -13.135194 6.232076 -3.689576 -7.271724 13.817015 -30.917759 1.725370 24.033484 -18.847719 -19.990008 4.118907 -4.383094 -14.754817 -11.813258 -2.907929 -2.239517 -9.000478 -11.797749 -0.842765 -13.057373 -44.353756 25.135703 -23.647402 -2.947356 16.997238 -0.050406 -32.587890 -3.032726 -22.191547 70.215717 -18.268595 3.224282 -0.002221 6.729357 0.014126 -0.005558 0.006270 -7.000487 -27.259272 -7.969613 3.644551 68.675743 4.896281 -13.127509 -3.265045 -3.443227 -0.002114 0.002284 -0.000938
127.746209 127.200996 14.769589 -11.050038 -34.837398 -5.002880 -5.918291 19.001595 2.823548 -0.785770 2.373264 0.460789 -1.279244 3.894986 0.739007 -5.113155 16.346400 2.554031 1.390544 12.933424 -6.573103 5.271702 -11.330628 -13.015298 6.011536 -3.645592 -7.281333 13.372092 -30.698296 2.071746 24.756298 -20.128186 -20.328351 4.176943 -4.766898 -15.185464 -11.823138 -2.773011 -2.116952 -8.582321 -11.390072 -1.072653 -13.833719 -45.564815 25.801740 -23.494773 -3.481737 17.931682 0.016959 -32.534379 -3.045554 -22.181686 70.186210 -18.259107 3.207377 0.036399 6.797966 -0.001029 -0.004655 -0.000457 -6.990078 -27.213659 -7.972514 3.679956 68.678084 4.945148 -13.147044 -3.270662 -3.437171 -0.003238 0.002261 -0.001437
127.747476 127.203034 14.766022 -11.040168 -34.882830 -5.031517 -5.952830 18.977425 2.787822 -0.788601 2.366228 0.455326 -1.284267 3.883969 0.730049 -5.146082 16.322786 2.517660 1.196688 12.973624 -6.549921 4.891833 -11.282795 -12.890111 5.818299 -3.612130 -7.298666 12.906315 -30.471665 2.411792 25.445285 -21.381365 -20.626911 4.223986 -5.080264 -15.536667 -11.794029 -2.640985 -1.997123 -8.137925 -11.001247 -1.286972 -14.618896 -46.738072 26.409215 -23.371992 -3.957146 18.682861 0.095843 -32.470763 -3.054931 -22.262385 70.159404 -18.287346 3.197289 0.052553 6.820516 0.003908 0.003073 0.001735 -6.944056 -27.155002 -7.962566 3.657337 68.679711 4.954539 -13.183691 -3.274027 -3.422871 -0.001878 0.004510 -0.000834
